<svg xmlns="http://www.w3.org/2000/svg" xmlns:xlink="http://www.w3.org/1999/xlink" viewBox="0 0 132 132"><defs><style>.cls-1{fill:#5ae2db;}.cls-2{fill:url(#linear-gradient);}.cls-3{fill:#f9f9f9;}</style><linearGradient id="linear-gradient" x1="62.44" y1="57.1" x2="119.89" y2="94.78" gradientUnits="userSpaceOnUse"><stop offset="0.08" stop-color="#5ae2db"/><stop offset="0.65" stop-color="#52cec5"/></linearGradient></defs><g id="Layer_2" data-name="Layer 2"><g id="Layer_1-2" data-name="Layer 1"><circle class="cls-1" cx="66" cy="66" r="66"/><path class="cls-2" d="M29,99l74-1V23l19.77,9.32s25.69,42.9-10,80.29c0,0-11.73,13.39-35.73,18.39Z"/><g id="Outline"><path class="cls-3" d="M101.08,21.87H30.56a3.93,3.93,0,0,0-3.92,3.92V96.31a3.92,3.92,0,0,0,3.92,3.92h70.52A3.91,3.91,0,0,0,105,96.31V25.79A3.92,3.92,0,0,0,101.08,21.87Zm1.31,74.44a1.31,1.31,0,0,1-1.31,1.31H30.56a1.31,1.31,0,0,1-1.31-1.31V34.93h73.14Zm-73.14-64V25.79a1.31,1.31,0,0,1,1.31-1.3h70.52a1.31,1.31,0,0,1,1.31,1.3v6.53Z"/><path class="cls-3" d="M32.24,27.48a1.33,1.33,0,0,0-.37.92,1.24,1.24,0,0,0,.1.5,1.21,1.21,0,0,0,.27.43,1.31,1.31,0,1,0,1.86-1.85A1.36,1.36,0,0,0,32.24,27.48Z"/><path class="cls-3" d="M37.47,27.48a1.34,1.34,0,0,0-.38.92,1.09,1.09,0,0,0,0,.26.84.84,0,0,0,.07.24,1,1,0,0,0,.12.23,1.56,1.56,0,0,0,.16.2,1.31,1.31,0,0,0,1.85,0l.16-.2a1,1,0,0,0,.12-.23.85.85,0,0,0,.08-.24,2.11,2.11,0,0,0,0-.26,1.3,1.3,0,0,0-2.23-.92Z"/><path class="cls-3" d="M42.69,27.48a1.31,1.31,0,1,0,1.86,1.85,1.31,1.31,0,0,0,0-1.85A1.36,1.36,0,0,0,42.69,27.48Z"/><path class="cls-3" d="M99.78,37.55H31.87V55.83H99.78ZM97.16,53.22H34.48V40.16H97.16Z"/><path class="cls-3" d="M55.37,58.44H31.87V95h23.5Zm-2.61,34H34.48V61.05H52.76Z"/><path class="cls-3" d="M58,75.42H99.78v-17H58ZM60.6,61.05H97.16V72.81H60.6Z"/><path class="cls-3" d="M58,95H99.78V78H58ZM60.6,80.64H97.16V92.4H60.6Z"/></g><path class="cls-3" d="M49.71,71H37.33a1.24,1.24,0,0,0-1.23,1.24V79.7a1.24,1.24,0,0,0,1.23,1.24H49.71A1.25,1.25,0,0,0,51,79.7V72.27A1.24,1.24,0,0,0,49.71,71Zm.74,8.67a.74.74,0,0,1-.74.74H37.33a.74.74,0,0,1-.74-.74V72.27a.74.74,0,0,1,.74-.74H49.71a.74.74,0,0,1,.74.74Z"/><path class="cls-3" d="M49.92,72.14a.25.25,0,0,0-.34-.08l-5.42,3.25a1.21,1.21,0,0,1-1.27,0l-5.43-3.25a.25.25,0,0,0-.34.09.24.24,0,0,0,.09.33l5.42,3.26a1.72,1.72,0,0,0,1.78,0l5.43-3.26A.24.24,0,0,0,49.92,72.14Z"/><path class="cls-3" d="M37.33,73a.25.25,0,0,0-.24.25V79.7a.25.25,0,1,0,.49,0V73.26A.25.25,0,0,0,37.33,73Z"/><path class="cls-3" d="M49.71,73a.25.25,0,0,0-.25.25V79.7a.26.26,0,0,0,.25.25A.25.25,0,0,0,50,79.7V73.26A.25.25,0,0,0,49.71,73Z"/></g></g></svg>