<svg xmlns="http://www.w3.org/2000/svg" xmlns:xlink="http://www.w3.org/1999/xlink" viewBox="0 0 132.03 132"><defs><style>.cls-1{fill:#5ae2db;}.cls-2{fill:url(#linear-gradient);}.cls-3{fill:#f9f9f9;}</style><linearGradient id="linear-gradient" x1="64.76" y1="62.56" x2="133.08" y2="109.38" gradientUnits="userSpaceOnUse"><stop offset="0" stop-color="#5ae2db"/><stop offset="0.44" stop-color="#55d5cd"/><stop offset="0.83" stop-color="#52cec5"/></linearGradient></defs><g id="Layer_2" data-name="Layer 2"><g id="Layer_1-2" data-name="Layer 1"><circle class="cls-1" cx="66" cy="66" r="66"/><path class="cls-2" d="M49.21,89.36s38.5,37.5,38.5,38.5c14-3,48-28,44-69l-66-35Z"/><path class="cls-3" d="M105.3,64.45a2.61,2.61,0,0,0-.28-.17l-6.35-3.42L63.43,79.52a3.22,3.22,0,0,1-3,0L25.2,60.86l-6.35,3.42a3.16,3.16,0,0,0-1.31,4.28,2.54,2.54,0,0,0,.16.28L61.94,92.26l44.23-23.42A3.17,3.17,0,0,0,105.3,64.45Z"/><path class="cls-3" d="M106.32,84.76a3.17,3.17,0,0,0-1.3-1.29l-6.35-3.42L63.43,98.7a3.17,3.17,0,0,1-3,0L25.2,80.05l-6.35,3.42a3.19,3.19,0,0,0-1.3,4.33,3.25,3.25,0,0,0,1.3,1.3l41.57,22.38a3.19,3.19,0,0,0,3,0L105,89.1A3.2,3.2,0,0,0,106.32,84.76Z"/><path class="cls-3" d="M105.3,45.26l-.28-.17L63.45,22.71a3.19,3.19,0,0,0-3,0L18.85,45.09a3.17,3.17,0,0,0-1.31,4.29c.05.09.1.18.16.27L61.94,73.07l44.23-23.42A3.17,3.17,0,0,0,105.3,45.26Z"/></g></g></svg>