<svg xmlns="http://www.w3.org/2000/svg" xmlns:xlink="http://www.w3.org/1999/xlink" viewBox="0 0 133.26 133.23"><defs><style>.cls-1{fill:#5ae2db;}.cls-2{fill:url(#linear-gradient);}.cls-3{fill:#f9f9f9;}</style><linearGradient id="linear-gradient" x1="70.21" y1="74.48" x2="130.06" y2="108.92" gradientUnits="userSpaceOnUse"><stop offset="0.06" stop-color="#5ae2db"/><stop offset="0.6" stop-color="#56d8d0"/><stop offset="1" stop-color="#52cec5"/></linearGradient></defs><g id="Layer_2" data-name="Layer 2"><g id="Layer_1-2" data-name="Layer 1"><circle class="cls-1" cx="66.62" cy="66.62" r="66.62"/><path class="cls-2" d="M59.26,114.23s25,15,25,16c19-3,48-25,49-63l-38-26Z"/><path class="cls-3" d="M23.61,114.17h15v-9h-15Zm9-6h3v3h-3Zm-6,0h3v3h-3Z"/><path class="cls-3" d="M23.61,99.18h15v3h-15Z"/><path class="cls-3" d="M59.59,114.17h15v-9h-15Zm9-6h3v3h-3Zm-6,0h3v3h-3Z"/><path class="cls-3" d="M59.59,99.18h15v3h-15Z"/><path class="cls-3" d="M95.56,114.17h15v-9h-15Zm9-6h3v3h-3Zm-6,0h3v3h-3Z"/><path class="cls-3" d="M95.56,99.18h15v3h-15Z"/><path class="cls-3" d="M52.09,42.22h6v6h-6Z"/><path class="cls-3" d="M52.09,60.21h6v6h-6Z"/><path class="cls-3" d="M61.09,42.22h6v6h-6Z"/><path class="cls-3" d="M61.09,60.21h3v6h-3Z"/><path class="cls-3" d="M52.09,51.21h6v6h-6Z"/><path class="cls-3" d="M64.09,55.71a1.5,1.5,0,0,1,1.49-1.5h1.5v-3h-6v6h3Z"/><path class="cls-3" d="M103.06,87.19H68.58v-9H91.07v-3h-9v-18h-15v18h-3v-6h-3v6h-3v-6h-6v6h-9v3H65.58v9H31.11a1.5,1.5,0,0,0-1.5,1.5v9h3V90.19h33v7.49h3V90.19h33v7.49h3v-9A1.5,1.5,0,0,0,103.06,87.19Zm-27-27h3v3h-3Zm0,6h3v3h-3Zm-6-6h3v3h-3Zm0,6h3v3h-3Z"/><path class="cls-3" d="M97.06,40.72h-3V39.4A6.25,6.25,0,0,0,92.26,35a6.17,6.17,0,0,0-4.37-1.8H86.57v-3h1.32a9.17,9.17,0,0,1,9.17,9.17Z"/><path class="cls-3" d="M103.06,40.72h-3V38.53a11.3,11.3,0,0,0-11.29-11.3h-2.2v-3h2.2a14.31,14.31,0,0,1,14.29,14.3Z"/><path class="cls-3" d="M40.1,40.72h-3V39.4a9.18,9.18,0,0,1,9.18-9.17H47.6v3H46.28A6.17,6.17,0,0,0,41.91,35,6.25,6.25,0,0,0,40.1,39.4Z"/><path class="cls-3" d="M34.11,40.72h-3V38.53A14.29,14.29,0,0,1,45.4,24.23h2.2v3H45.4a11.28,11.28,0,0,0-11.29,11.3Z"/></g></g></svg>