<svg xmlns="http://www.w3.org/2000/svg" viewBox="0 0 69.64 66.19"><defs><style>.cls-1{fill:#182127;}</style></defs><g id="Layer_2" data-name="Layer 2"><g id="Layer_1-2" data-name="Layer 1"><path class="cls-1" d="M68.47,29.41l-5.88-5.36V6.27a2.05,2.05,0,0,0-2.05-2H46.38a2.05,2.05,0,0,0-2.05,2.05V7.41L37.23.94a3.55,3.55,0,0,0-4.81,0L1.17,29.41a3.57,3.57,0,0,0,2.4,6.21h5V64.14a2,2,0,0,0,2,2H27.74a2,2,0,0,0,2.05-2V46.82H39.85V64.14a2,2,0,0,0,2,2H59a2,2,0,0,0,2-2V35.62h5a3.57,3.57,0,0,0,2.4-6.21ZM59,31.52A2.05,2.05,0,0,0,57,33.57V62.1H44V44.78a2.05,2.05,0,0,0-2.05-2.05H27.74a2.05,2.05,0,0,0-2,2.05V62.1h-13V33.57a2.05,2.05,0,0,0-2.05-2.05H4.93L34.82,4.29,45,13.56a2,2,0,0,0,3.43-1.51V8.32H58.49V25a2,2,0,0,0,.67,1.52l5.55,5.05Z"/></g></g></svg>