<svg xmlns="http://www.w3.org/2000/svg" viewBox="0 0 54.89 62.73"><defs><style>.cls-1{fill:#182127;}</style></defs><g id="Layer_2" data-name="Layer 2"><g id="Layer_1-2" data-name="Layer 1"><path class="cls-1" d="M49.61,12.59a2,2,0,0,1-1.32-.51,30.7,30.7,0,0,0-41.69,0A2,2,0,1,1,4,9.18a34.63,34.63,0,0,1,47,0A2,2,0,0,1,51.06,12a2,2,0,0,1-1.45.64Z"/><path class="cls-1" d="M52.93,25.4a2,2,0,0,1-1.63-.87A28.81,28.81,0,0,0,27.45,11.59,28.81,28.81,0,0,0,3.59,24.53,2,2,0,0,1,.33,22.35,32.73,32.73,0,0,1,27.45,7.67,32.73,32.73,0,0,1,54.56,22.35a2,2,0,0,1-1.63,3Z"/><path class="cls-1" d="M21.25,62.73a1.94,1.94,0,0,1-1.39-.58c-.43-.43-10.47-10.68-10.47-20.56C9.39,31.35,17.49,23,27.45,23S45.5,31.35,45.5,41.59a2,2,0,1,1-3.92,0c0-8.08-6.34-14.66-14.13-14.66A14.42,14.42,0,0,0,13.31,41.59c0,8.28,9.24,17.71,9.34,17.8a2,2,0,0,1-1.4,3.34Z"/><path class="cls-1" d="M33.64,62.73c-4.72,0-15.65-9-16.71-19a12.66,12.66,0,0,1,3-9.66,10,10,0,0,1,7.45-3.42h.06a10.43,10.43,0,0,1,7.39,3.07,11,11,0,0,1,3.24,7.84v1.27a5.47,5.47,0,1,0,10.93,0v-.44c0-12.21-8.84-22.36-20.13-23.12A21,21,0,0,0,13,25a22.91,22.91,0,0,0-2.17,30.8,2,2,0,1,1-3.06,2.45,26.84,26.84,0,0,1,2.55-36.12A24.89,24.89,0,0,1,29.14,15.4c13.34.89,23.79,12.76,23.79,27v.45a9.39,9.39,0,1,1-18.78,0V41.59a7,7,0,0,0-2.07-5.05,6.54,6.54,0,0,0-4.63-1.94h0a6,6,0,0,0-4.55,2.12,8.69,8.69,0,0,0-2,6.64c.86,8.15,10.23,15.45,12.81,15.45a2,2,0,1,1,0,3.92Z"/><path class="cls-1" d="M40.91,58.9c-7,0-15.58-8.58-15.58-18.59a2,2,0,1,1,3.92,0C29.25,48.07,35.77,55,40.91,55a2,2,0,0,1,0,3.92Z"/></g></g></svg>