<svg xmlns="http://www.w3.org/2000/svg" xmlns:xlink="http://www.w3.org/1999/xlink" viewBox="0 0 132 132"><defs><style>.cls-1{fill:#5ae2db;}.cls-2{fill:url(#linear-gradient);}.cls-3{fill:#f9f9f9;}</style><linearGradient id="linear-gradient" x1="50.27" y1="55.68" x2="139.19" y2="109.58" gradientUnits="userSpaceOnUse"><stop offset="0.14" stop-color="#5ae2db"/><stop offset="0.81" stop-color="#52cec5"/></linearGradient></defs><g id="Layer_2" data-name="Layer 2"><g id="Layer_1-2" data-name="Layer 1"><circle class="cls-1" cx="66" cy="66" r="66"/><path class="cls-2" d="M37.31,91.82s54,34,54,35c23-9,43-34,40.4-67l-51.9-32.5s12.5,12.5,12.5,15.5c.46,4,5.71,12.34,1,21-.8,1.46-.7,10.17-11,15a38.08,38.08,0,0,1-10,3c-2,.31-6.51,4-12,3-6.28-1.13-11.21-3.44-14-4-2.27-.45.1-.48-3.67,2.67C38.35,87.06,47.31,81.82,37.31,91.82Z"/><path class="cls-3" d="M27.9,113.08,47.68,84.93a33.23,33.23,0,1,0-5.7-4L22.19,109.07a1.74,1.74,0,0,0,.42,2.43l2.85,2A1.75,1.75,0,0,0,27.9,113.08ZM38,60.47A26.17,26.17,0,1,1,68.27,81.76,26.2,26.2,0,0,1,38,60.47Z"/><path class="cls-3" d="M78.07,60.12A43.57,43.57,0,0,0,60,64.85l-7,4.06a3.88,3.88,0,0,1-5.3-1.42L44.1,61.31A3.88,3.88,0,0,1,45.52,56l5.82-3.37a.71.71,0,0,1,1,.26l4.58,7.93a.7.7,0,1,0,1.2-.73l-4.61-8a.72.72,0,0,1,.21-.94,43.26,43.26,0,0,0,12-12.52,3,3,0,0,1,5,.1L80.51,55.7A3,3,0,0,1,78.07,60.12Zm1.26-11.8a4.42,4.42,0,0,0-2.82-4.86.71.71,0,0,0-.85,1L78,48.56A.71.71,0,0,0,79.33,48.32ZM63.05,73.27l-3.34-5.81a.72.72,0,0,0-1-.26l-4.3,2.48a.71.71,0,0,0-.25,1l3.35,5.8a2.3,2.3,0,0,0,2,1.15c.76,0,1-.26,2.68-1.2A2.29,2.29,0,0,0,63.05,73.27ZM84.47,43a.69.69,0,0,0,.26-1,.7.7,0,0,0-1-.26L81.94,42.8a.7.7,0,0,0,.36,1.31C82.55,44.11,82.5,44.1,84.47,43ZM78,39.31l.45-1.66a.71.71,0,0,0-1.37-.36L76.63,39a.7.7,0,0,0,.68.88.69.69,0,0,0,.68-.52Zm7.86,11.18a.7.7,0,0,0-.5-.86l-1.66-.45a.7.7,0,0,0-.37,1.36,10.83,10.83,0,0,0,1.85.47.7.7,0,0,0,.68-.52Z"/></g></g></svg>