<svg xmlns="http://www.w3.org/2000/svg" xmlns:xlink="http://www.w3.org/1999/xlink" viewBox="0 0 132.03 132"><defs><style>.cls-1{fill:#5ae2db;}.cls-2{fill:url(#linear-gradient);}.cls-3{fill:#f9f9f9;}</style><linearGradient id="linear-gradient" x1="82.13" y1="65.12" x2="132.36" y2="116.57" gradientUnits="userSpaceOnUse"><stop offset="0" stop-color="#5ae2db"/><stop offset="0.81" stop-color="#52cec5"/></linearGradient></defs><g id="Layer_2" data-name="Layer 2"><g id="Layer_1-2" data-name="Layer 1"><circle class="cls-1" cx="66" cy="66" r="66"/><path class="cls-2" d="M60.13,99.35s27.58,27.51,27.58,28.51c14-3,48-28,44-69L106.13,45.35v54Z"/><path class="cls-3" d="M93.29,22.35H24.12v77h83v-77ZM35.18,96.27h-8.3V87h8.3Zm0-12.32h-8.3V74.71h8.3Zm0-12.32h-8.3V62.39h8.3Zm0-12.32h-8.3V50.07h8.3Zm0-12.32h-8.3V37.75h8.3Zm0-12.32h-8.3V25.43h8.3Zm58.11,61.6H38V25.43H93.29Zm11.07,0h-8.3V87h8.3Zm0-12.32h-8.3V74.71h8.3Zm0-12.32h-8.3V62.39h8.3Zm0-12.32h-8.3V50.07h8.3Zm0-12.32h-8.3V37.75h8.3Zm0-12.32h-8.3V25.43h8.3Z"/><path class="cls-3" d="M76.51,60.08a1.41,1.41,0,0,0-.51-.57L56.63,47.19a1.3,1.3,0,0,0-1.89.56,1.73,1.73,0,0,0-.19.78V73.17a1.6,1.6,0,0,0,.69,1.33,1.29,1.29,0,0,0,1.39,0L76,62.18A1.64,1.64,0,0,0,76.51,60.08ZM57.32,70.51V51.18l15.2,9.67Z"/></g></g></svg>