<svg xmlns="http://www.w3.org/2000/svg" xmlns:xlink="http://www.w3.org/1999/xlink" viewBox="0 0 132 132"><defs><style>.cls-1{fill:#5ae2db;}.cls-2{fill:url(#linear-gradient);}.cls-3,.cls-4{fill:#f9f9f9;}.cls-3{stroke:#f9f9f9;stroke-miterlimit:10;}</style><linearGradient id="linear-gradient" x1="35.5" y1="82.93" x2="132" y2="82.93" gradientUnits="userSpaceOnUse"><stop offset="0" stop-color="#5ae2db"/><stop offset="1" stop-color="#52cec5"/></linearGradient></defs><g id="Layer_2" data-name="Layer 2"><g id="Layer_1-2" data-name="Layer 1"><circle class="cls-1" cx="66" cy="66" r="66"/><path class="cls-2" d="M35.5,88.5l53.57,39.35S131,110,132,66L104,38V52l4,1,1,20-5,2v9l-3,4L37,89Z"/><path class="cls-3" d="M95.14,61.43a4,4,0,1,0,4.19,4A4.12,4.12,0,0,0,95.14,61.43Zm0,5.86a1.83,1.83,0,1,1,1.91-1.83A1.87,1.87,0,0,1,95.14,67.29Z"/><path class="cls-4" d="M106.57,51.17h-1.14v-15a7.12,7.12,0,0,0-7.24-7H66.81L45.63,23.38h-.52l-.06,0h0l-.07,0h0l-.06,0h0l-.06,0h0l-.06,0,0,0-.06,0,0,0,0,.05,0,0-.05.05,0,0a.1.1,0,0,0,0,.05l0,0s0,0,0,.05l0,0s0,0,0,.05,0,0,0,.06v.07l-1.31,5H39.22A7.11,7.11,0,0,0,32,36.13V75c0,.61.52.35,1.15.35s1.14.26,1.14-.35V41.22a7.38,7.38,0,0,0,4.95,1.89h59a4.87,4.87,0,0,1,4.94,4.77v7.69H90.47l-.11,0h0l-.09,0h0l-.08,0h0l-.06,0,0,0,0,0,0,0,0,0a.1.1,0,0,0-.05,0l0,0-.06,0,0,0,0,0-.07.09h0l-6.09,8.79a.72.72,0,0,0-.11.19l0,.08v0s0,.06,0,.08v0s0,.05,0,.08v.09s0,0,0,0,0,0,0,0v.1s0,.05,0,.07v0s0,.06,0,.08v0l0,.07a.78.78,0,0,0,.11.2l6.09,8.79h0l.08.1,0,0,.06.06,0,0a.18.18,0,0,0,.07,0l0,0,.1.06h0l.09,0h0l.09,0h12.86V83a4.86,4.86,0,0,1-5,4.76h-59A4.86,4.86,0,0,1,34.27,83V75A1.15,1.15,0,0,0,32,75v8.07A7.1,7.1,0,0,0,39.22,90h59a7.11,7.11,0,0,0,7.24-7h0V75.35h1.14a3.37,3.37,0,0,0,3.43-3.3V54.47A3.37,3.37,0,0,0,106.57,51.17ZM46.14,25.8l20.17,5.54h0l13.51,3.72H43.73Zm57,17a7.34,7.34,0,0,0-5-1.89h-59a4.77,4.77,0,1,1,0-9.53h3.11l-.95,3.67H39.22a1.1,1.1,0,1,0,0,2.19H96.67a1.1,1.1,0,1,0,0-2.19H88.14L74.81,31.39H98.19a4.87,4.87,0,0,1,5,4.76Zm4.57,29.24h0a1.12,1.12,0,0,1-1.14,1.1H91.18l-5.33-7.69,5.33-7.69h15.44a3.56,3.56,0,0,0,1.09-.18V72.05Zm-1.14-16.48h-1.14v-2.2h1.14a1.1,1.1,0,1,1,0,2.2Z"/><path class="cls-4" d="M64.17,67.6,49.26,81.94a1.65,1.65,0,0,1-2.28,0,1.51,1.51,0,0,1,0-2.19L78.32,49.61a1.65,1.65,0,0,1,2.28,0,1.49,1.49,0,0,1,0,2.19L64.42,67.42l.74.74,16.2-15.63a2.48,2.48,0,0,0,.79-1.82,2.52,2.52,0,0,0-.79-1.83,2.76,2.76,0,0,0-3.8,0L46.22,79a2.51,2.51,0,0,0,0,3.66,2.75,2.75,0,0,0,3.8,0L64.93,68.33Z"/><path class="cls-4" d="M54.61,65.77A8.83,8.83,0,1,0,45.43,57,9,9,0,0,0,54.61,65.77Zm0-16.62a7.8,7.8,0,1,1-8.1,7.8A8,8,0,0,1,54.61,49.15Z"/><path class="cls-4" d="M54.61,61.64A4.69,4.69,0,1,0,49.73,57,4.8,4.8,0,0,0,54.61,61.64Zm0-8.35A3.66,3.66,0,1,1,50.81,57,3.73,3.73,0,0,1,54.61,53.29Z"/><path class="cls-4" d="M73,65.77a8.84,8.84,0,1,0,9.18,8.83A9,9,0,0,0,73,65.77ZM73,82.4a7.8,7.8,0,1,1,8.11-7.8A8,8,0,0,1,73,82.4Z"/><path class="cls-4" d="M73,69.91a4.69,4.69,0,1,0,4.88,4.69A4.8,4.8,0,0,0,73,69.91Zm0,8.35a3.66,3.66,0,1,1,3.8-3.66A3.74,3.74,0,0,1,73,78.26Z"/></g></g></svg>