<svg xmlns="http://www.w3.org/2000/svg" viewBox="0 0 60.67 71"><defs><style>.cls-1{fill:#182127;}</style></defs><g id="Layer_2" data-name="Layer 2"><g id="Layer_1-2" data-name="Layer 1"><g id="Layer_5" data-name="Layer 5"><path class="cls-1" d="M60.39,60.33l-9.29-16c1.6-.49,3.32-.92,4-2.15,1.19-2.05-.93-5.41-.37-7.6s3.94-4.22,3.94-6.51-3.49-4.85-4.06-7.1,1.55-5.56.36-7.6-5.15-1.88-6.79-3.45-1.67-5.57-3.7-6.65-5.33,1.11-7.59.59S32.69,0,30.36,0s-6.13,3.81-6.72,4c-2.25.52-5.56-1.67-7.6-.58s-2,5-3.68,6.66-5.6,1.42-6.78,3.46S6.5,18.9,6,21.1s-4.05,4.43-4.05,7c0,2.29,3.38,4.24,4,6.5s-1.55,5.56-.36,7.6c.65,1.12,2.12,1.57,3.59,2,.17.06.49.25.27.57L.28,60.44a1.3,1.3,0,0,0,1.16,2.12l6.27.26a5,5,0,0,1,3.57,2.07l3.34,5.31a1.3,1.3,0,0,0,2.42,0L26.4,54c.19-.22.38-.18.47-.1a6.47,6.47,0,0,0,3.64,1.74,5.64,5.64,0,0,0,3.33-1.73c.08-.08.3-.23.45.09l9.36,16.08a1.29,1.29,0,0,0,2.41,0l3.33-5.32A5,5,0,0,1,53,62.72l6.27-.28A1.29,1.29,0,0,0,60.39,60.33ZM40.72,45.79a20.78,20.78,0,1,1-.41-36.24l.15.09.22.12a20.83,20.83,0,0,1,0,36Z"/><path class="cls-1" d="M39.14,12.68l-.09,0A17.52,17.52,0,0,0,21,42.64l.61.37A17.53,17.53,0,1,0,39.14,12.68Zm2.09,13.67L38.3,29.21A4.94,4.94,0,0,0,37,33.08l.7,4c.21,1.25-.53,1.79-1.65,1.2l-3.62-1.9a4.92,4.92,0,0,0-4.08,0l-3.62,1.9c-1.12.59-1.86,0-1.65-1.2l.7-4a4.94,4.94,0,0,0-1.26-3.87l-2.93-2.86c-.91-.88-.63-1.75.63-1.94l4-.58a4.92,4.92,0,0,0,3.3-2.4l1.81-3.67c.56-1.13,1.48-1.13,2,0l1.81,3.67a4.92,4.92,0,0,0,3.3,2.4l4,.58C41.85,24.6,42.14,25.47,41.23,26.35Z"/></g></g></g></svg>