<svg xmlns="http://www.w3.org/2000/svg" xmlns:xlink="http://www.w3.org/1999/xlink" viewBox="0 0 132.14 132"><defs><style>.cls-1{fill:#5ae2db;}.cls-2{fill:url(#linear-gradient);}.cls-3{fill:#f9f9f9;stroke:#f9f9f9;stroke-miterlimit:10;}</style><linearGradient id="linear-gradient" x1="47.82" y1="55.54" x2="133.28" y2="97.44" gradientUnits="userSpaceOnUse"><stop offset="0.14" stop-color="#5ae2db"/><stop offset="0.68" stop-color="#52cec5"/></linearGradient></defs><g id="Layer_2" data-name="Layer 2"><g id="Layer_1-2" data-name="Layer 1"><circle class="cls-1" cx="66" cy="66" r="66"/><path class="cls-2" d="M41,83l51.24,43.24s25.54-8.67,35.15-36,1.66-43.84,1.66-43.84L62,20l.76,3.51,26.74,11v15h-1v6s9,2,10,5l-3,1s-5-5-16-2S65.79,75.7,65.79,75.7,64.55,91.5,81.53,98s24-15.5,24-15.5.73-5.39-.14-7.69l2.14.69-1.71,11.35S103,95,85.5,100.5C92.56,91.66,111,28,71,27c-7.3-10.58-32.08,7-33,6-10.12-.42-1.73,22-4,26Z"/><path class="cls-3" d="M89.4,50.06V34.56L61.9,23.15,35.1,33.72,34.1,56c0,26.75,22.59,35.47,26.1,36.3l1.75.49a11.14,11.14,0,0,1-.05,2.16c-.3-.06-29.77-6.08-29.77-39l.92-23.47L61,21.18a2.57,2.57,0,0,1,1.89,0L91.56,33.33h.11V50.06"/><path class="cls-3" d="M85.79,100a22,22,0,0,1,0-44,20.24,20.24,0,0,1,11.35,3.48c.69.45,1.34,1.37.9,2.07-.65.65-1.33-.17-1.4-.22-2.45-2.46-7.23-3.59-10.85-3.59-10.42,0-20.15,9.79-20.15,20.27s9.73,20.6,20.15,20.6,19.63-9.49,19.63-20c0-.63,0-1.88-.07-2.49-.08-.83-.24-1.56.58-1.64a1.49,1.49,0,0,1,1.63,1.35c.07.71.1,1.42.1,2.15A22,22,0,0,1,85.79,100Z"/><path class="cls-3" d="M86.63,83a1.49,1.49,0,0,1-1-.44l-9-9a1.5,1.5,0,0,1,2.11-2.12l7.89,7.94,20.82-20.94a1.5,1.5,0,0,1,2.11,2.12l-21.87,22A1.53,1.53,0,0,1,86.63,83Z"/></g></g></svg>