<svg xmlns="http://www.w3.org/2000/svg" xmlns:xlink="http://www.w3.org/1999/xlink" viewBox="0 0 133.17 133.17"><defs><style>.cls-1{fill:#5ae2db;}.cls-2{fill:url(#linear-gradient);}.cls-3{fill:#f9f9f9;}</style><linearGradient id="linear-gradient" x1="79.2" y1="72.82" x2="126.24" y2="115.12" gradientUnits="userSpaceOnUse"><stop offset="0" stop-color="#5ae2db"/><stop offset="0.36" stop-color="#57dbd3"/><stop offset="0.75" stop-color="#52cec5"/></linearGradient></defs><g id="Layer_2" data-name="Layer 2"><g id="Layer_1-2" data-name="Layer 1"><circle class="cls-1" cx="66.58" cy="66.58" r="66.58"/><path class="cls-2" d="M50.21,88.17S88.48,128,88.48,129c17.66-4.73,43.89-28.94,43.89-56.18L89,48.59Z"/><path class="cls-3" d="M31.2,80.58V99.37a1.56,1.56,0,0,0,1.56,1.56h4.7V79h-4.7A1.56,1.56,0,0,0,31.2,80.58Z"/><path class="cls-3" d="M56.25,60.23h25v3.13h-25Z"/><path class="cls-3" d="M104.78,79h-4.7v21.91h4.7a1.56,1.56,0,0,0,1.56-1.56V80.58A1.56,1.56,0,0,0,104.78,79Z"/><circle class="cls-3" cx="68.77" cy="47.71" r="3.13"/><path class="cls-3" d="M43.72,46.14a1.56,1.56,0,0,1,1.57-1.56h11A1.57,1.57,0,0,0,57.81,43V24.23a1.56,1.56,0,0,0-1.56-1.57H24.94a1.57,1.57,0,0,0-1.57,1.57V43a1.57,1.57,0,0,0,1.57,1.57H39a1.53,1.53,0,0,1,1.1.46l3.59,3.58ZM26.5,25.79H54.68v3.13H26.5Zm25,6.26v3.13H29.63V32.05Zm-25,9.4V38.31H54.68v3.14Z"/><path class="cls-3" d="M112.6,28.92H81.29a1.56,1.56,0,0,0-1.56,1.57V49.27a1.56,1.56,0,0,0,1.56,1.57h11a1.56,1.56,0,0,1,1.57,1.56v2.49l3.59-3.59a1.53,1.53,0,0,1,1.1-.46H112.6a1.57,1.57,0,0,0,1.57-1.57V30.49a1.57,1.57,0,0,0-1.57-1.57ZM111,47.71H82.86V44.58H111ZM86,41.45V38.31h21.92v3.14ZM111,35.18H82.86V32.05H111Z"/><path class="cls-3" d="M68.77,54a6.33,6.33,0,0,1-1.57-.22v4.92h3.14V53.75A6.33,6.33,0,0,1,68.77,54Z"/><rect class="cls-3" x="40.59" y="66.49" width="56.36" height="46.96" rx="22.85"/><circle class="cls-1" cx="55.37" cy="87.82" r="10.27"/><circle class="cls-1" cx="82.96" cy="87.82" r="10.27"/></g></g></svg>