<svg xmlns="http://www.w3.org/2000/svg" xmlns:xlink="http://www.w3.org/1999/xlink" viewBox="0 0 132 132"><defs><style>.cls-1{fill:#5ae2db;}.cls-2{fill:url(#linear-gradient);}.cls-3{fill:#f9f9f9;}</style><linearGradient id="linear-gradient" x1="76.71" y1="66.29" x2="131.93" y2="116.3" gradientUnits="userSpaceOnUse"><stop offset="0" stop-color="#5ae2db"/><stop offset="0.68" stop-color="#52cec5"/></linearGradient></defs><g id="Layer_2" data-name="Layer 2"><g id="Layer_1-2" data-name="Layer 1"><circle class="cls-1" cx="66" cy="66" r="66"/><path class="cls-2" d="M57.31,95.22s31.5,31.5,31.5,32.5c22-8,43-29,43-62l-28-18Z"/><path class="cls-3" d="M101.1,42.89l-1.36.43L92.49,44l-2,3.27L89,46.76l-5.77-5.2-.84-2.7L81.23,36,77.6,32.72l-4.28-.84-.1,2,4.19,4.09,2.06,2.41-2.31,1.21L75.28,41l-2.81-1.18.1-2.27L68.87,36l-1.22,5.33-3.72.84.37,3,4.84.93L70,41.37,74,42l1.86,1.09h3l2,4.09,5.41,5.49-.39,2.14-4.37-.56L74,58l-5.44,6.52-.7,2.88h-2l-3.64-1.67-3.52,1.67.87,3.72,1.54-1.77,2.7-.08-.19,3.34,2.24.66,2.23,2.51,3.65-1,4.16.66,4.84,1.3,2.42.28,4.1,4.65,7.9,4.65-5.11,9.77-5.4,2.51-2.05,5.58-7.81,5.22-.83,3a45.44,45.44,0,0,0,27.11-69.5Z"/><path class="cls-3" d="M68.54,92l-3.31-6.14,3-6.34-3-.91-3.42-3.43-7.57-1.7-2.51-5.26v3.12h-1.1L44.1,62.49V55.23l-4.78-7.77-7.59,1.35H26.62l-2.57-1.69,3.28-2.6-3.27.76a45.44,45.44,0,0,0,39.25,68.44,49,49,0,0,0,5.71-.4l-.48-5.51s2.09-8.19,2.09-8.47S68.54,92,68.54,92Z"/><path class="cls-3" d="M34.72,37.37l8.08-1.12,3.73-2,4.19,1.2,6.7-.37,2.29-3.6,3.35.55,8.12-.77,2.24-2.46,3.16-2.11,4.47.67,1.63-.25A45.36,45.36,0,0,0,28.22,39.25h0ZM65.23,27.23l4.65-2.56,3,1.72-4.32,3.29-4.12.41-1.86-1.2Zm-13.76.37,2.05.85,2.68-.85,1.47,2.54-6.2,1.62-3-1.74S51.4,28.14,51.47,27.6Z"/></g></g></svg>