<svg xmlns="http://www.w3.org/2000/svg" xmlns:xlink="http://www.w3.org/1999/xlink" viewBox="0 0 132 132"><defs><style>.cls-1{fill:#5ae2db;}.cls-2{fill:url(#linear-gradient);}.cls-3{fill:#f9f9f9;}</style><linearGradient id="linear-gradient" x1="119.2" y1="103.66" x2="81.74" y2="72.78" gradientUnits="userSpaceOnUse"><stop offset="0.32" stop-color="#52cec5"/><stop offset="1" stop-color="#5ae2db"/></linearGradient></defs><g id="Layer_2" data-name="Layer 2"><g id="Layer_1-2" data-name="Layer 1"><circle class="cls-1" cx="66" cy="66" r="66"/><path class="cls-2" d="M77,131,32.57,96.82a1.54,1.54,0,0,1,1-2.73L80.36,95A1.56,1.56,0,0,0,82,93.62l.68-5.16a1.57,1.57,0,0,1,1.58-1.35h5.13a1.62,1.62,0,0,0,1.16-.49,1.53,1.53,0,0,0,.43-1.07l-.45-66.89a1.59,1.59,0,0,1,2.17-1.45C105.77,32.14,117.89,44.07,131,59c.25,5.88.11,18.69-4,29.82-6.24,16.89-16.49,26.32-18.92,28.31A64.54,64.54,0,0,1,77,131Z"/><path class="cls-3" d="M31.57,26.27V94.68A1.32,1.32,0,0,0,32.89,96h50a1.32,1.32,0,0,0,1.32-1.32V39.43s0-.06,0-.09a1.3,1.3,0,0,0-.07-.33.5.5,0,0,0,0-.13,1.22,1.22,0,0,0-.26-.38L70.65,25.34a1.16,1.16,0,0,0-.39-.26l-.12,0A1.28,1.28,0,0,0,69.8,25H32.89A1.31,1.31,0,0,0,31.57,26.27ZM79.71,38.11H71V29.45ZM34.2,27.59H68.41V39.43a1.32,1.32,0,0,0,1.32,1.31H81.57V93.37H34.2Z"/><path class="cls-3" d="M86.83,85.47v2.64h4a1.32,1.32,0,0,0,1.31-1.32V18.38a1.32,1.32,0,0,0-1.31-1.32h-50a1.31,1.31,0,0,0-1.31,1.32v3.94H42.1V19.69H89.46V85.47Z"/><path class="cls-3" d="M42.1,43.37H73.67V46H42.1Z"/><path class="cls-3" d="M42.1,35.48H52.62v2.63H42.1Z"/><path class="cls-3" d="M42.1,51.27h21V53.9h-21Z"/><path class="cls-3" d="M65.78,51.27h7.89V53.9H65.78Z"/><path class="cls-3" d="M42.1,59.16H73.67v2.63H42.1Z"/><path class="cls-3" d="M42.1,75H73.67v2.63H42.1Z"/><path class="cls-3" d="M53.94,67.06H73.67v2.63H53.94Z"/><path class="cls-3" d="M42.1,67.06h9.21v2.63H42.1Z"/><path class="cls-3" d="M42.1,82.84h5.26v2.63H42.1Z"/><path class="cls-3" d="M50,82.84H73.67v2.63H50Z"/></g></g></svg>