<svg xmlns="http://www.w3.org/2000/svg" xmlns:xlink="http://www.w3.org/1999/xlink" viewBox="0 0 132.32 132.32"><defs><style>.cls-1{fill:#5ae2db;}.cls-2{fill:url(#linear-gradient);}.cls-3{fill:#f9f9f9;}</style><linearGradient id="linear-gradient" x1="69.14" y1="63.61" x2="131.06" y2="133.66" gradientUnits="userSpaceOnUse"><stop offset="0" stop-color="#5ae2db"/><stop offset="0.74" stop-color="#52cec5"/></linearGradient></defs><g id="Layer_2" data-name="Layer 2"><g id="Layer_1-2" data-name="Layer 1"><circle class="cls-1" cx="66.16" cy="66.16" r="66.16"/><path class="cls-2" d="M38.72,95s31,36,31,37c38,0,65-39,62.3-65l-30.3-18Z"/><g id="Page-1"><g id="_021---Lightweight-Fabric" data-name="021---Lightweight-Fabric"><path id="Shape" class="cls-3" d="M29.84,109.08,25,113a65.51,65.51,0,0,1,6.09-22c5.61-11.44,28.52-38.45,49.1-48.25C69,50.9,48.17,68.66,34.67,96.12a75.62,75.62,0,0,0-4.83,13Zm77.81-69.2c-2.36,3.19-4.59,6-6.71,8.56a51.35,51.35,0,0,1-14.65,2.31,1.65,1.65,0,0,0,0,3.29,51.57,51.57,0,0,0,10.79-1.21,56.46,56.46,0,0,1-6.91,6.48c-5.77,4.41-17.93,1.4-18,1.37a1.59,1.59,0,0,0-1.74.68,1.67,1.67,0,0,0,.05,1.9,19.14,19.14,0,0,0,12.25,6.88A200.54,200.54,0,0,1,64.54,85.47C54.37,88.32,48.66,84.18,48.42,84a1.59,1.59,0,0,0-1.84-.07,1.67,1.67,0,0,0-.72,1.72,12.11,12.11,0,0,0,4.57,7.74A34.42,34.42,0,0,1,39,94.8,147.15,147.15,0,0,1,82.09,45.43,3.24,3.24,0,0,0,83,41.11a3.17,3.17,0,0,0-4.19-1.33c-19.75,9.4-40.14,32.63-48.25,45.59C28.78,69.79,33.73,62,36.66,58.82a14.31,14.31,0,0,0,5,6.47,1.6,1.6,0,0,0,1.66.09,1.63,1.63,0,0,0,.85-1.46c0-5.68,2.57-16.75,3.1-19q2.13-2.4,4.49-4.57a36.63,36.63,0,0,0-1.11,8.72,1.62,1.62,0,1,0,3.23,0,36.39,36.39,0,0,1,2.46-12.55,69.48,69.48,0,0,1,13.54-8.13,20.52,20.52,0,0,0-1.39,3.82,1.65,1.65,0,0,0,1.19,2,1.62,1.62,0,0,0,2-1.2,22.19,22.19,0,0,1,3.09-6.61,57.65,57.65,0,0,1,19.61-3.66c11.77,0,18.23,2.7,20.61,4A71.74,71.74,0,0,1,107.65,39.88Z"/></g></g></g></g></svg>