<svg xmlns="http://www.w3.org/2000/svg" xmlns:xlink="http://www.w3.org/1999/xlink" viewBox="0 0 520.09 559.52"><defs><style>.cls-1,.cls-14{fill:none;}.cls-10,.cls-2{fill:#c4d9ea;}.cls-3{fill:#f37123;}.cls-4{fill:#d0561e;}.cls-5{fill:#1c224c;}.cls-6{fill:#ffd0b5;}.cls-7{fill:#10476d;}.cls-8{fill:#135f85;}.cls-9{fill:#eaf2f6;}.cls-10{opacity:0.6;}.cls-11{fill:#053148;}.cls-12{fill:#dca99c;}.cls-13{fill:#fff;}.cls-14{stroke:#fff;stroke-miterlimit:10;}.cls-15{clip-path:url(#clip-path);}.cls-16{fill:#f6bda6;}.cls-17{fill:#c58d83;}.cls-18{fill:#045993;}.cls-19{clip-path:url(#clip-path-2);}</style><clipPath id="clip-path"><rect class="cls-1" x="8.69" y="213.2" width="154.07" height="157.94"/></clipPath><clipPath id="clip-path-2"><rect class="cls-1" x="192.53" y="48.95" width="154.07" height="157.94"/></clipPath></defs><g id="Layer_2" data-name="Layer 2"><g id="Layer_1-2" data-name="Layer 1"><path class="cls-2" d="M506.29,277.67H480.54V218.74h25.75Zm-24.56-1.19H505.1V219.92H481.73Z"/><rect class="cls-2" x="492.82" width="1.19" height="219.33"/><path class="cls-2" d="M468.4,305H442.65V246.07H468.4Zm-24.56-1.19h23.37V247.26H443.84Z"/><rect class="cls-2" x="454.93" width="1.19" height="246.66"/><path class="cls-2" d="M430.5,241.22H404.75V182.29H430.5ZM405.94,240h23.37V183.48H405.94Z"/><rect class="cls-2" x="417.03" width="1.19" height="182.89"/><path class="cls-3" d="M520.07,350.45c-.36,5.62-46.76,108.7-51.36,147.67H348.27s-.9-16.89-.49-37.32c.36-18.08,1.73-39,5.63-53.29,8.32-30.54,32.66-76,40.91-84.14,7.89-7.81,105.73,3.68,117,6.53a4.17,4.17,0,0,1,1,.31C515.82,332.34,520.42,344.81,520.07,350.45Z"/><path class="cls-4" d="M457.89,389.33c-3.27,19.89-10.47,39-15,58.67q-3.53,15.45-6,31.1c-1,6.22-1.44,12.73-2.55,19h-86.1s-.9-16.89-.49-37.32a.77.77,0,0,1,.34.27c3.52-28.06,12.69-55.42,27.88-79.38,8.53-13.46,19.29-25.8,32.8-34.45,11.19-7.15,28.58-14.25,40.38-4.38,5.87,4.92,8.2,12.8,9.31,20.1A83.65,83.65,0,0,1,457.89,389.33Z"/><path class="cls-4" d="M520.07,350.45c-.36,5.62-46.76,108.7-51.36,147.67H458.26c.19-4.11.7-8,.9-10.7a269.51,269.51,0,0,1,41.81-126c4.24-6.66,8.76-13.56,10.44-21.29a22.06,22.06,0,0,0-.1-10.27,4.17,4.17,0,0,1,1,.31C515.82,332.34,520.42,344.81,520.07,350.45Z"/><path class="cls-5" d="M396.92,232.33c-5.31,0,11.62-16.45,25.61-9.91C442.26,231.64,462,307.84,439.8,342c-17.33,26.71-59.21,32.3-65.06,49.23s-3.1,24.06-3.1,24.06-34.58-27.45-29.27-56.14,43-50.66,58.68-55.62S400.11,232.33,396.92,232.33Z"/><path class="cls-6" d="M260,455.36s-14.76,3.74-16.27,3.74-13-1.64-15.84-.65-6.68,2.35-6.68,2.35-5.59.49-8.12,2-11.86,8.85-12.11,9.67,3.35,0,3.35,0-4.81,3.88-4.19,4.64,9.13-1.85,13.88-5.15c1.48-1,9.1-2.17,10.23-2.13s10.1,3.31,10.09,4.1c0,2.39-5.71,3.36-8.79,3-1.56-.18-7.77,1-7.55,2.41s12.81,1.68,15.33,2.05,15.87-6,16.78-6.07,14.89-.73,14.89-.73S265.52,457.39,260,455.36Z"/><path class="cls-7" d="M379.06,355.08c-12.71,4.27-60.66,81-61.84,82.18s-65.89,17.18-66.36,18.59-3.21,15.28,6.85,20.31c1.89.95,71-6.75,77.58-8.44,8.32-2.12,51.36-61.46,54-69.49S387.3,352.32,379.06,355.08Z"/><path class="cls-8" d="M260.32,450.85c-.38-.19-10.55,2.5-10.94,3.08s0,10.36,1,14,5.73,9.24,6.3,9.52,10.92-.47,10.94-1.26c0-1.23-4.1-9.39-4.8-12.37C262.27,461.48,260.9,451.13,260.32,450.85Z"/><path class="cls-7" d="M260.22,471.38h-.09a1.89,1.89,0,1,0,1.89,1.89v-.08A1.86,1.86,0,0,0,260.22,471.38Z"/><path class="cls-9" d="M438.72,495.17c-2.38,4.34-19.89,7.14-36.23,5.8-8.14-.67-16-2.37-21.53-5.42a19.71,19.71,0,0,1-4.06-2.86c-13.46-12.58-17.52-57.92-19.13-58.63s-12.39-17-8.85-28.16c2.19-6.91,10.54-21.19,18.42-32.49,4.84-6.94,9.49-12.75,12.44-15,5.19-4,8-5.47,12.6-6.43,2.28-.47,5-.82,8.67-1.31,6.44-.85,15.87,1,23.55,4.24a42.06,42.06,0,0,1,6.8,3.56c2.89,1.9,5,4,5.91,6.22,4.26,10.62-6.73,69.58-4.61,85.88S442.62,488.09,438.72,495.17Z"/><path class="cls-2" d="M409.81,433.86c-6.42,3.46-12.59,6.54-20.08,6.34-7-.18-14.13-2.71-20.79-4.8a.13.13,0,0,0-.1.23c6.82,3.29,13.78,6.28,21.52,6.31,7.4,0,13.76-3.54,19.82-7.43A.37.37,0,0,0,409.81,433.86Z"/><path class="cls-2" d="M373.47,433.9c-4.32-1.63-8.91-1-13.05.8-.15.06,0,.29.11.25,4.26-1.08,8.39-.77,12.67-.05A.52.52,0,0,0,373.47,433.9Z"/><path class="cls-2" d="M393.69,359.75c.08-.16-.16-.31-.25-.14-5.76,10.61-11.4,21.34-15.21,32.83s-5.07,23.53-4.67,35.71a208.35,208.35,0,0,0,15.43,72c.13.33.68.19.54-.15a216.69,216.69,0,0,1-15.1-70.52c-.49-12.33.6-24.43,4.4-36.21S388.23,370.67,393.69,359.75Z"/><path class="cls-2" d="M388.91,381.78a1.72,1.72,0,0,1-1.12,1.27,1,1,0,0,1-1.16-.76,1.46,1.46,0,0,1,1.63-1.86c.09,0,.17-.12.07-.16a1.91,1.91,0,0,0-2.55,2.51,2,2,0,0,0,2.08,1.24c1.05-.2,1.32-1.21,1.48-2.12C389.38,381.62,389,381.5,388.91,381.78Z"/><path class="cls-2" d="M382.67,403.17a1.69,1.69,0,0,1-1.12,1.26,1,1,0,0,1-1.17-.76,1.46,1.46,0,0,1,1.64-1.85c.08,0,.17-.12.06-.17a1.91,1.91,0,0,0-2.54,2.52,2,2,0,0,0,2.07,1.23c1.06-.19,1.33-1.2,1.48-2.12A.22.22,0,0,0,382.67,403.17Z"/><path class="cls-2" d="M380.42,425.59a1.69,1.69,0,0,1-1.12,1.26,1,1,0,0,1-1.17-.76,1.46,1.46,0,0,1,1.64-1.85c.08,0,.17-.12.06-.16a1.9,1.9,0,0,0-2.54,2.51,2,2,0,0,0,2.07,1.23c1.06-.19,1.33-1.2,1.48-2.12A.22.22,0,0,0,380.42,425.59Z"/><path class="cls-2" d="M381.77,447a1.7,1.7,0,0,1-1.12,1.26,1,1,0,0,1-1.16-.76,1.44,1.44,0,0,1,1.63-1.85c.09,0,.17-.12.07-.17a1.92,1.92,0,0,0-2.55,2.52,2,2,0,0,0,2.08,1.23c1-.19,1.32-1.2,1.48-2.12A.22.22,0,0,0,381.77,447Z"/><path class="cls-2" d="M385,466.5a1.7,1.7,0,0,1-1.12,1.27,1,1,0,0,1-1.17-.76,1.45,1.45,0,0,1,1.63-1.85c.09,0,.18-.12.07-.17a1.91,1.91,0,0,0-2.54,2.52,2,2,0,0,0,2.07,1.23c1.06-.19,1.33-1.2,1.48-2.12C385.5,466.35,385.1,466.23,385,466.5Z"/><path class="cls-10" d="M431.4,358.44c-.61,1.27-1.25,2.49-1.89,3.64a57.59,57.59,0,0,1-13.8,16.18c-10.09,8.27-23.93,13.72-36.63,8.1a21.46,21.46,0,0,1-11.74-12.95c4.84-6.94,9.49-12.75,12.44-15,5.19-4,8-5.47,12.6-6.43,2.28-.47,5-.82,8.67-1.31,6.44-.85,15.87,1,23.55,4.24A42.06,42.06,0,0,1,431.4,358.44Z"/><path class="cls-6" d="M343.93,486.87s-14.11,1.61-15.13,1.31-14.09-5.07-17.31-5.55-17.06,1.88-19,2.84-6.72,4.27-6.72,4.27-8.65,6.21-7.41,6.86c3,1.53,12-5.59,13-5.78s9.95-1.16,9.95-1.16-10.77,1.11-13.27,2.5c-1.8,1-9.66,7.77-9,8.55,1.63,2,10-4.75,11.58-5.07,2.24-.46,12-1.41,12-1.41s-9.54.9-12.34,2.11-8,5.73-7.38,6.39c1,1,7.93-2.45,8.88-2.88s10-1.09,10-1.09-6.19,1-9.53,2.95c-2.09,1.23-5.12,3.07-4.32,4s8.7-2.05,10.53-2.12,7.24-.44,8.41-.22,9.8,3.66,12.14,3.66,9.79-2.76,10.45-2.92,17.6,1,17.6,1S349.85,491,343.93,486.87Z"/><path class="cls-7" d="M438.72,495.17c-2.38,4.34-19.89,7.15-36.23,5.8-.59-2-3.39-10.6-6-22.71a1.16,1.16,0,0,0-.05-.2c-3.39-15.77-6.48-37.44-4.06-58.34,2.78-24,24-58.36,30.1-66.24,6.17,2.59,17,7.15,18.49,10.85,4.27,10.63-10.39,69.92-8.26,86.21S442.62,488.09,438.72,495.17Z"/><path class="cls-7" d="M453.8,448.74c.37,28.1-2.33,45.62-5.15,48.52-3.31,3.38-48.64,9.56-97.31,10.16-1.7,0-3.42,0-5.13.05a3.17,3.17,0,0,1-2.13-1,11.87,11.87,0,0,1-2.37-3.45c-3.24-6.6-4.92-18.38-2.45-20a27.79,27.79,0,0,1,4.71-1.67c11.62-3.51,40.91-10.64,53.4-13.66l1.86-.44,3.73-.9c4-.93,12.33-2,12.33-2s-4.37-24.08-5.52-41.92c-.16-2.59-.27-5-.27-7.26a35.29,35.29,0,0,1,1.42-8.54h0c.57-2.19,1.3-4.56,2.15-7a148.15,148.15,0,0,1,8.56-19.83c6.25-11.88,13.51-21,18.22-17.32C446.46,367.52,453.43,420.62,453.8,448.74Z"/><path class="cls-8" d="M343.4,479.53c-.43-.21-11.85,2.74-12.3,3.39s-.1,11.62,1,15.68,6.37,10.41,7,10.73,12.25-.45,12.29-1.34c.05-1.38-4.55-10.56-5.32-13.91C345.52,491.47,344.05,479.85,343.4,479.53Z"/><path class="cls-7" d="M343.15,502.57h-.1c-1.89-.14-2.76,2.36-1.52,3.61a2.15,2.15,0,0,0,3.63-1.48v-.09A2.06,2.06,0,0,0,343.15,502.57Z"/><path class="cls-2" d="M423.22,465.13c-2.59-.08-5.11-.22-7.64-.22a.69.69,0,0,1-.49,0,44.85,44.85,0,0,0-5.13.32,98.19,98.19,0,0,0-13.86,2.94c-8.44,2.27-16.93,4.93-25.58,6.36-.07,0-.08-.09,0-.11A210.67,210.67,0,0,1,394.33,467l2-.52,2-.52c5-1.31,10.66-2.7,16.16-2.77a164.61,164.61,0,0,1-4.59-34.78c0-.06.08-.07.08,0,1.48,11.71,3.42,23.3,5.9,34.82a23.7,23.7,0,0,1,7.41,1.3C423.57,464.65,423.59,465.15,423.22,465.13Z"/><path class="cls-11" d="M422.47,353.48s-.16,15-.38,27.46c-.16,8.47-.34,15.77-.53,16.35s-4.53,2-8.78,3.13-8.42,2.06-8.42,2.06,3.19,2.51,6,4.9v0c2.07,1.75,3.92,3.47,4.13,4.06S412,417,408.6,423.14c-4.65,8.58-10.5,19.66-11.32,25.16a147.1,147.1,0,0,0-.94,18.21l-2,.52c-2.37-14.09-3.86-30.94-2-47.31C395.15,395.76,416.4,361.36,422.47,353.48Z"/><path class="cls-7" d="M363.44,407.51c-1.94,13.26,2.42,38.81,7.67,59.28,0,0,0,0,0,0,3.4,13.35,7.18,24.53,9.83,28.74a19.94,19.94,0,0,1-4.05-2.87c-13.46-12.58-17.53-57.92-19.13-58.63s-12.38-17-8.84-28.15,23.11-41.53,30.85-47.53c5.18-4,8-5.47,12.59-6.43h0C386.51,358.58,366.53,386.4,363.44,407.51Z"/><path class="cls-11" d="M371.11,466.79c-10.22-18.09-17.52-60.06-17.29-61.59s9.69-9.45,9.69-9.45-7.1-2.61-6.5-3.77c7-13.66,34.49-39.22,35.35-40-5.85,6.62-25.83,34.44-28.92,55.55C361.5,420.77,365.86,446.32,371.11,466.79Z"/><path class="cls-2" d="M358,433.74c-3.88-6.52-8.4-13-8.69-20.85-.27-7.68,3.92-14.57,7-21.33a.22.22,0,0,0-.37-.22c-1.35,2.12-2.75,4.33-4,6.63.4-1.51.75-3,1.26-4.49.09-.26-.34-.45-.46-.19-1,2.33-2.29,5-2.35,7.57a.15.15,0,0,0,0,.09,26.34,26.34,0,0,0-2.83,11.58c.14,8.49,5.25,14.71,9.63,21.56,0,0,1.58,7.16,2.07,7.76.12.15.27.15.23,0C359.33,440.85,358.21,433.8,358,433.74Z"/><path class="cls-9" d="M406.75,337.72c-11.07-1.33-23.44,10.9-26.48,15.23-4.78,6.82-5.53,25.08-5.53,25.08s12.55-11.85,15.63-11.44c2.64.35,6.91,18.06,6.91,18.06S420,365.7,422.43,354C423.33,349.75,418.23,339.1,406.75,337.72Z"/><path class="cls-6" d="M384.29,316l.47,32.55.07,4.64s2,13,5.54,13.41c8,1,21.49-12.86,22.49-15.34s4.95-46.07,4.95-46.07l-3.75,1.21Z"/><path class="cls-12" d="M384.29,316l.47,32.55c7.37-2,14.22-7.06,19.43-14.15,5.82-7.89,9-17.78,9.87-28Z"/><path class="cls-5" d="M355.67,237.65S342,245.09,336.7,266s17.73,37.54,17.73,37.54L370.3,241.9Z"/><path class="cls-6" d="M414.15,245c9.9,15.3,10,57.5-.31,73.47-7,10.93-25.23,16.87-40,13.43-6.73-1.57-12.75-5.07-16.71-10.91-12.66-18.71-10.36-67.3-1.44-76.52C371.42,228.2,402,226.33,414.15,245Z"/><path class="cls-5" d="M355.67,237.65s1.23,16.88,16,26.56a42.57,42.57,0,0,0,29.41,6.73s2.14,17.42,17.34,20.34c6.54,1.25,9.43-41.12-4.27-54.34S372.3,221.12,355.67,237.65Z"/><path class="cls-6" d="M413.72,290.08s7-14.52,13.43-12.24,2.67,22.3-3.85,26a7.15,7.15,0,0,1-10.08-2.25Z"/><path class="cls-12" d="M425.92,283.55c.11,0,.16.13.07.18-4.55,2.77-6.37,7.7-7.4,12.67,1.15-2,3-3.34,5.65-2,.15.07.06.29-.09.29a4.4,4.4,0,0,0-4.53,2.29A21.83,21.83,0,0,0,418,301.2c-.15.47-1,.37-.89-.16a.5.5,0,0,1,0-.12C416,294.74,419.36,285.26,425.92,283.55Z"/><path class="cls-9" d="M420.15,301.35c-4.93,0-4.94,7.66,0,7.66S425.09,301.35,420.15,301.35Z"/><polygon class="cls-2" points="141.56 504.23 278.74 504.23 264.01 420.59 126.84 420.59 141.56 504.23"/><rect class="cls-2" x="141.7" y="504.23" width="185.8" height="9.25" transform="translate(469.2 1017.71) rotate(180)"/><path class="cls-13" d="M210,464.17a7.21,7.21,0,1,1-7.21-7.21A7.2,7.2,0,0,1,210,464.17Z"/><path class="cls-3" d="M329.18,306.24l-17.6-8.85H242.07a3.47,3.47,0,0,1-3.48-3.48v-55.7a3.48,3.48,0,0,1,3.48-3.49h80.71a3.48,3.48,0,0,1,3.48,3.49v48.12l7,15.56A3.23,3.23,0,0,1,329.18,306.24Z"/><line class="cls-14" x1="249.76" y1="271.11" x2="314.48" y2="271.11"/><line class="cls-14" x1="249.76" y1="262.76" x2="274.59" y2="262.76"/><line class="cls-14" x1="280.08" y1="262.76" x2="314.48" y2="262.76"/><line class="cls-14" x1="249.76" y1="278.55" x2="284.16" y2="278.55"/><line class="cls-14" x1="249.76" y1="254.42" x2="292.63" y2="254.42"/><line class="cls-14" x1="249.76" y1="286.67" x2="301.8" y2="286.67"/><line class="cls-14" x1="249.76" y1="246.07" x2="314.48" y2="246.07"/><path class="cls-3" d="M408.78,516.17s-6.17,43.35-14.18,43.35H365.87c-8,0-14.17-43.35-14.17-43.35Z"/><path class="cls-3" d="M402.15,554.32a20.2,20.2,0,0,1-3-.23l.57-6.63c10.55,1.58,14.39-6.9,15.31-9.54,1.47-4.17,1.08-7.89,0-9.27-3.51-4.34-8.94.18-9.16.37L403,523.43c.37-.32,9-7.58,15.4.36,3,3.68,3.43,10.49,1.16,16.94C417.18,547.56,411.41,554.32,402.15,554.32Z"/><polyline class="cls-14" points="202.79 464.17 184.34 324.55 157.31 324.55"/><polyline class="cls-14" points="89.47 220.88 123.41 146.51 203.06 146.51"/><rect class="cls-14" x="0.5" y="195.73" width="170.45" height="183.81"/><rect class="cls-3" x="155.33" y="201.57" width="7.4" height="7.4"/><rect class="cls-14" x="141.2" y="201.57" width="7.4" height="7.4"/><rect class="cls-14" x="127.07" y="201.57" width="7.4" height="7.4"/><line class="cls-14" x1="156.57" y1="202.81" x2="161.48" y2="207.72"/><line class="cls-14" x1="161.48" y1="202.81" x2="156.57" y2="207.72"/><g class="cls-15"><path class="cls-16" d="M118,380.53c-20.78,2-46.89-47.49-47.64-55.15-1.14-11.68,14.72-3.18,18.73-.22,3.13,2.3,17.23,20,23.29,27.63C114.14,355,120.06,380.33,118,380.53Z"/><path class="cls-16" d="M149.12,292.86c-1.14-.06-2.39,5.32-3.77,9.17,1.39-3.89,2.45-13.66,1.72-13.81-1.7-.35-5.4,10.77-5.94,12.68.48-2,3.57-14.27,2.46-14.49-1.65-.34-6.69,14.42-7.2,14.33,0,0,4.41-13.44,3-13.9-2.52-.79-7.78,17-8.1,17.43s1.89-11.15-1.16-8.84c-.36.27-2.61,6.57-3,11.12-.37,3.89,1.24,10,1.27,10.32,0,.55-13,20.45-16.16,25-2.47,3.53-5.81,8.55-7.21,11.15l12.64,27.57c11.48-9.42,25.56-61.72,26-62s4.2-8.17,5-10.82S150.55,292.94,149.12,292.86Z"/><path class="cls-17" d="M143.55,305.69c-4.65.94-9.34,4.37-10.2,9.24a.21.21,0,0,0,.4.11c1.5-5,5.9-6.55,10.05-8.76C144.14,306.1,143.9,305.62,143.55,305.69Z"/><path class="cls-3" d="M67.51,314.91c-2.75,7.9,28.85,71.93,47.59,70.12,13.11-1.26,27.85-47.57,29-53.5.53-2.68-14.73-11.51-18.84-11.42s-15.81,25.21-17,24.59-14.39-21.43-19.62-25.1S70.28,307,67.51,314.91Z"/><path class="cls-3" d="M67.44,308.44a30.28,30.28,0,0,1,13.64,7.38c.76.63,3.69,17.6,10.24,33.19,6.88,16.39,13.12,31.15,12.57,33-10.19,34.51-62.15,66.18-68.3,58.21-11.56-15-8.35-33.73-8-43.59s-6.32-69.32-5.3-74.76,20-15,20-15Z"/><path class="cls-4" d="M70.82,311c0-.26-.47-.25-.51,0-.6,3.67-1.41,7-4.62,9.3A13.06,13.06,0,0,1,57,322.53,22.69,22.69,0,0,1,40.4,311.7c0-.07-.15,0-.12.05,2.78,6.72,10.61,11.89,17.92,12C65.08,323.83,70.68,318.71,70.82,311Z"/><path class="cls-4" d="M88.55,341.14a52.48,52.48,0,0,0-2.27-9c-.06-.19-.33-.09-.29.09.4,1.85.74,3.73,1.12,5.59-1.18-2.67-2.36-5.33-3.56-8-.09-.18-.37-.1-.3.1,4.54,12.45,11.75,30.62,17.24,41.28.13.26.55.05.45-.22C98,363,91.93,348.93,88.55,341.14Z"/><path class="cls-16" d="M68.37,285.46l-.46,21.66-.07,3.08a9.63,9.63,0,0,1-7.46,7.65c-6.5,1.35-16.67-7.11-17.5-8.72s-2.19-29.64-2.19-29.64l3.1.67Z"/><path class="cls-17" d="M68.37,285.46l-.46,21.66a29.12,29.12,0,0,1-16-8.71,30.6,30.6,0,0,1-8.09-18.25Z"/><path class="cls-16" d="M28.42,252c-1.51,11.07,9.42,34.52,19.29,40.71,6.75,4.23,18.39,2.79,25.71-3a16.55,16.55,0,0,0,6.43-10.4c2.16-13.68-11.3-41.11-18.66-43.92C48.21,230.43,30.28,238.42,28.42,252Z"/><path class="cls-5" d="M37.19,276.44c5.5-1.43,2.57-9.54,2.57-9.54s4-3.12,3.23-14.32c-.21-2.85,6.62-.86,16.62-4.81,7.48-3,8.78-5.3,8.75-5.58-.2-1.69-4.56-9.25-12.51-10.68s-25.65,3.84-29.21,17.43S33.41,277.42,37.19,276.44Z"/><path class="cls-16" d="M39.87,276.34s-7.2-6.77-10.38-4,3.38,13.34,7.93,14a4.38,4.38,0,0,0,5.27-3.51Z"/><path class="cls-17" d="M31.45,275.3c-.07,0-.06.1,0,.11,3.21.58,5.34,3,7,5.62-1.11-.91-2.44-1.26-3.68.09-.07.07,0,.18.11.15a2.69,2.69,0,0,1,3.1.31,13.15,13.15,0,0,1,1.88,2.06c.19.23.64,0,.48-.29l0-.06C39.62,279.5,35.58,274.83,31.45,275.3Z"/><path class="cls-16" d="M117.41,400.4c.48,1.34-14.56,6.8-17.31,6.87s-11.47-1-11.85-1.37-61.34,3-68.81-7a15.29,15.29,0,0,1-2.08-4.57c-4.83-16-.29-57.84,3.17-64.71,5.29-10.48,14.14,5.18,15.95,9.83,1.4,3.62,3.88,26.09,4.9,35.81.29,2.75.46,4.48.46,4.48,1.16-.27,9.23,1.91,14.52,3.51s28.27,7.77,28.78,7.55S103.79,385.3,107,386c.4.09-3.71,3-3.16,3.17s14.89,2.1,14.76,3.77-15.64.49-15.64.49c.07.5,16.18,0,16.38,1.65.3,2.57-16.74,2.33-16.79,2.76,0,0,15.38-1.57,15.83-.14.52,1.63-13.72,3.91-13.72,3.91S117.06,399.42,117.41,400.4Z"/><path class="cls-17" d="M41.38,375.28c-9.43,4.5-18,10.54-24,19.07-4.83-16,1.11-58.78,4.57-65.65,5.29-10.49,12.74,6.12,14.55,10.77C37.88,343.09,40.36,365.56,41.38,375.28Z"/><path class="cls-3" d="M23.69,319.25C17.14,324.46,7.8,387,17,399.17s58.8,11.71,61.38,10.8,5.4-20.45,1.87-22.57-36.51-8.88-37.14-10-1.51-36.95-4-42.84S30.28,314,23.69,319.25Z"/><path class="cls-4" d="M43.32,377.75a187.94,187.94,0,0,0-1.81-26.84c.37-2.42.53-4.92.76-7.34,0-.15-.21-.21-.24-.05-.31,1.6-.65,3.24-.89,4.89-.37-2.45-.77-4.9-1.22-7.35,0-.16-.3-.11-.29.05,1.35,12.18,2.19,24.44,2.78,36.68A.46.46,0,0,0,43.32,377.75Z"/></g><path class="cls-18" d="M105.18,278.73l13.86-7h54.77a2.74,2.74,0,0,0,2.74-2.74V236.36a2.74,2.74,0,0,0-2.74-2.74H110.22a2.75,2.75,0,0,0-2.75,2.74V263L102,275.3A2.55,2.55,0,0,0,105.18,278.73Z"/><line class="cls-14" x1="116.75" y1="242.87" x2="167.75" y2="242.87"/><line class="cls-14" x1="116.75" y1="249.44" x2="136.31" y2="249.44"/><line class="cls-14" x1="140.64" y1="249.44" x2="167.75" y2="249.44"/><line class="cls-14" x1="116.75" y1="256.02" x2="150.53" y2="256.02"/><line class="cls-14" x1="116.75" y1="262.59" x2="167.75" y2="262.59"/><rect class="cls-14" x="184.34" y="31.48" width="170.45" height="183.81"/><rect class="cls-3" x="339.16" y="37.32" width="7.4" height="7.4"/><rect class="cls-14" x="325.04" y="37.32" width="7.4" height="7.4"/><rect class="cls-14" x="310.91" y="37.32" width="7.4" height="7.4"/><line class="cls-14" x1="340.41" y1="38.56" x2="345.32" y2="43.47"/><line class="cls-14" x1="345.32" y1="38.56" x2="340.41" y2="43.47"/><g class="cls-19"><path class="cls-3" d="M275.62,61.86c-17.1,4.47-17.14,20.07-16.49,28.9s-4.54,15.63-3.85,20.68,5.7,8.41,6.23,10.27c1.39,4.9-4.33,7-3.81,14.39a86.22,86.22,0,0,0,36,2.52c20.43-2.78,35.5-16.59,35.5-16.59a13.21,13.21,0,0,0-6.45-8.61c-5.72-3.44-1.95-10.88-3.38-16.25-1.95-7.35-8.56-11.66-11-18C303.76,67.41,300.26,55.43,275.62,61.86Z"/><path class="cls-6" d="M276.39,139.64s-.4,9.43-1.89,19.86c-1.56,10.86-3.14,56.39-8.49,62.17-9.87,10.67-37.14-9.66-43.37-12.38-2.24-1,5.27-10.59,8.83-9.32s20.09,7.22,20.22,7.54c1,2.4,3.07-38.72,9.39-52.34A33.79,33.79,0,0,1,276.39,139.64Z"/><path class="cls-5" d="M276.39,139.64s-10,2.25-16.1,15.1c-6,12.6-8,50.46-9.2,50.54S242,200,238.61,201.36s-10.76,14.52-7.93,15.33,24.81,12.6,34,6.88C275.28,217,276.39,139.64,276.39,139.64Z"/><path class="cls-6" d="M311.46,189.84c-.41,4.67,4.87,14.85,3.05,17s-18,15.75-29.79,12.85-14.56-29.54-15.2-30.31-5.19-2.49-8-8.74,2-16.73,2.74-18.56c.48-1.26,1.69-8.41,3-13.18.55-2.06,1.13-3.7,1.68-4.21.8-.72,4-2.75,7.5-5.1,2-1.38,4.15-2.87,5.87-4.28h0c1.94-1.57,3.38-3,3.65-4a1,1,0,0,0,.05-.23,48.69,48.69,0,0,1,8.84-4.89c2.93-1.13,5.67-1.46,6.45.71,0,0,0,0,0,0,.92,2.52,3.48,4.17,6.46,5.37,4.94,2,11,2.73,12.76,4.2a5.14,5.14,0,0,1,1.14,2.61c1.38,6.14.84,20.49-.47,26C319.58,171.69,311.86,185.16,311.46,189.84Z"/><path class="cls-5" d="M314.2,191.75c-.41,4.68,2.13,12.94.31,15.14s-18,15.75-29.79,12.85-14.56-29.54-15.2-30.31-5.19-2.49-8-8.74,2-16.73,2.74-18.56c.48-1.26,1.69-8.41,3-13.18.55-2.06,1.13-3.7,1.68-4.21.8-.72,4-2.75,7.5-5.1-.72,6.06-.89,19.37,3.82,22.11,5.38,3.12,26.45-25.67,27.52-29.45,4.94,2,11,2.73,12.76,4.2a5.14,5.14,0,0,1,1.14,2.61c1.38,6.14.84,20.49-.47,26C319.58,171.69,314.6,187.08,314.2,191.75Z"/><path class="cls-9" d="M280.11,188.76a13.14,13.14,0,0,0-9.28-.41c-.06,0,0,.12,0,.11a21.42,21.42,0,0,1,9.17.66C280.23,189.17,280.3,188.85,280.11,188.76Z"/><path class="cls-9" d="M299.73,184.66c-3.74,1.93-7,3.68-11.35,3.89s-7.65-1.32-11.59-2.35c-.13,0-.23.17-.1.24,4.05,2.18,7.79,3.61,12.49,3.22,3.81-.3,8.24-1.65,10.92-4.53A.3.3,0,0,0,299.73,184.66Z"/><path class="cls-9" d="M277,211.91a118.7,118.7,0,0,1-4.63-11,58.14,58.14,0,0,1-2.25-11.14c-3.59-2.71-7.12-5.68-8.36-10.19-1.32-4.81,0-9.57,1-14.28a.09.09,0,0,0-.18-.05c-1.65,4.82-3.2,10.45-1.57,15.48,1.37,4.24,4.81,7.34,8.69,9.29a.17.17,0,0,0-.05.13,42.34,42.34,0,0,0,6.92,22A.24.24,0,0,0,277,211.91Z"/><path class="cls-6" d="M337.78,174.35c-1.46-10.86-3.73-20.17-4.07-21.94-1-5.24-8.39-13-13.09-16-1.64-1.06-6.19,8.47-7.06,14.6-1.32,9.27,2.43,25.85,5.23,37,1.48,6,2.7,10.36,2.71,11.27.06,2.36-23.8,18.41-29.4,21.57l3.61,9.42c8.07-2.14,33.72-9.6,41.06-20C340.68,204.67,339.67,188.31,337.78,174.35Z"/><path class="cls-6" d="M292.36,220.62c-.59.71-8.78.16-11.32.67s-10.8,4.61-10.6,5.48,8.75-2.35,9-2.28c0,.16-9.2,4-9,4.93.09.46,2.27-.08,4.56-.77-1.49.53-2.7,1.06-2.67,1.4.05.57,3.74-.21,6.38-.85-2,.54-4.58,1.29-4.63,1.63-.08.58,11.13-1.62,12.85-1.25s6.89,4,8.41,3.08,5.4-3.88,5.4-3.88S292.48,220.48,292.36,220.62ZM279,227.42a7.64,7.64,0,0,1,1.39-.38Z"/><path class="cls-5" d="M319.18,136.28c-4.47,2.33-8.55,15.62-4.89,39.07s4.89,23.46,4.89,23.46-23.55,16.8-24.94,18.18,4.68,11.5,11.08,13.2,30-11.47,34.13-19.95-3.48-54.84-5.38-61.13C331.91,142,322.12,134.74,319.18,136.28Z"/><path class="cls-9" d="M315.77,184.35c-1.4-6.78-3.46-18.11-3.11-25.08a.16.16,0,0,0-.32,0,55.53,55.53,0,0,0-.45,8.15,22.34,22.34,0,0,1-1-3.23c0-.26-.45-.21-.41,0a18.86,18.86,0,0,0,1.4,5.3.34.34,0,0,0,.1.13,67.53,67.53,0,0,0,3.7,15.11C315.85,185.11,315.86,184.78,315.77,184.35Z"/><path class="cls-6" d="M282.94,112.9l1.74,19.88.24,2.83s1.78,7.85,4,8c4.91.24,12.56-8.82,13.07-10.38s1-28.39,1-28.39l-2.24.91Z"/><path class="cls-12" d="M282.94,112.9l1.74,19.88a22.51,22.51,0,0,0,11.25-9.51,33.66,33.66,0,0,0,4.79-17.56Z"/><path class="cls-6" d="M298.05,68.19c6.73,8.91,8.66,34.71,3.07,44.93-3.82,7-14.68,11.44-23.87,10a16.56,16.56,0,0,1-10.7-5.93c-8.57-10.88-9.32-40.69-4.28-46.73C271.18,59.79,289.82,57.29,298.05,68.19Z"/><path class="cls-3" d="M258.48,90.11c4.39,1,9.79-15.17,9.79-15.17s3.37,12,20.52,12c0,0,6.88,8.34,14.39,8s5-29-8.51-33.81-27.31,3.23-27.31,3.23-6.19,1.56-8.88,7.28S256.66,89.7,258.48,90.11Z"/><path class="cls-6" d="M299.79,95.75s3.62-9.19,7.67-8.08,2.62,13.52-1.2,16.08a4.39,4.39,0,0,1-6.27-.93Z"/><path class="cls-12" d="M307,91.22a.06.06,0,0,1,.05.1c-2.66,1.9-3.55,5-4,8.08.61-1.3,1.66-2.18,3.36-1.48.09,0,0,.17,0,.17a2.71,2.71,0,0,0-2.67,1.61,12.81,12.81,0,0,0-.82,2.66c-.08.3-.59.27-.56-.06,0,0,0,0,0-.07C301.36,98.5,303,92.56,307,91.22Z"/><path class="cls-9" d="M304.22,102.36c-3,.22-2.68,4.9.34,4.68S307.24,102.14,304.22,102.36Z"/></g><path class="cls-6" d="M217.52,197.72c-2.69.17-6.94,3.6-8.59,5.08s-7,12-5.67,12.67S212,205.36,212,205.36s-8.67,12.11-7.37,13.87,11.63-12,11.63-12-10.62,10.16-9.15,12.07S219,209.41,219,209.41s-9.9,8.8-9,10.08,15.47-10.07,16.24-10.2-4.14,4.69-3.9,6.49c.33,2.46,3.6-2,6.11-2.81,2.67-.85,4.21-4.61,5.24-6.06,0,0,2.34-3.75,2.4-3.86s-1.89-1.46-4.09-2.76C228.4,198.18,221.91,197.44,217.52,197.72Z"/><path class="cls-2" d="M243,112.23l-13.86-7h-69a2.74,2.74,0,0,1-2.75-2.74V56.79a2.75,2.75,0,0,1,2.75-2.74h77.85a2.74,2.74,0,0,1,2.74,2.74V96.55l5.52,12.26A2.54,2.54,0,0,1,243,112.23Z"/><line class="cls-14" x1="167.34" y1="63.3" x2="230.63" y2="63.3"/><line class="cls-14" x1="167.34" y1="69.87" x2="191.62" y2="69.87"/><line class="cls-14" x1="196.99" y1="69.87" x2="230.63" y2="69.87"/><line class="cls-14" x1="167.34" y1="76.45" x2="209.26" y2="76.45"/><line class="cls-14" x1="167.34" y1="83.02" x2="230.63" y2="83.02"/><line class="cls-14" x1="167.34" y1="89.6" x2="208.13" y2="89.6"/><line class="cls-14" x1="213.83" y1="89.6" x2="230.63" y2="89.6"/><line class="cls-14" x1="167.34" y1="96.18" x2="198.98" y2="96.18"/><path class="cls-13" d="M126.69,146.51a3.28,3.28,0,1,1-3.28-3.28A3.28,3.28,0,0,1,126.69,146.51Z"/><path class="cls-13" d="M187.62,324.55a3.29,3.29,0,1,1-3.28-3.29A3.28,3.28,0,0,1,187.62,324.55Z"/><line class="cls-14" x1="98.52" y1="107.88" x2="98.52" y2="102.45"/><line class="cls-14" x1="93.34" y1="109.98" x2="89.5" y2="106.14"/><line class="cls-14" x1="91.16" y1="115.13" x2="85.73" y2="115.13"/><line class="cls-14" x1="93.26" y1="120.31" x2="89.42" y2="124.15"/><line class="cls-14" x1="98.41" y1="122.49" x2="98.41" y2="127.92"/><line class="cls-14" x1="103.59" y1="120.39" x2="107.43" y2="124.23"/><line class="cls-14" x1="105.77" y1="115.24" x2="111.2" y2="115.24"/><line class="cls-14" x1="103.67" y1="110.06" x2="107.51" y2="106.22"/><line class="cls-14" x1="211.23" y1="281.06" x2="211.23" y2="275.63"/><line class="cls-14" x1="206.05" y1="283.16" x2="202.21" y2="279.32"/><line class="cls-14" x1="203.87" y1="288.31" x2="198.44" y2="288.31"/><line class="cls-14" x1="205.97" y1="293.49" x2="202.13" y2="297.33"/><line class="cls-14" x1="211.12" y1="295.67" x2="211.12" y2="301.1"/><line class="cls-14" x1="216.3" y1="293.57" x2="220.14" y2="297.41"/><line class="cls-14" x1="218.48" y1="288.42" x2="223.91" y2="288.42"/><line class="cls-14" x1="216.38" y1="283.24" x2="220.22" y2="279.4"/><line class="cls-14" x1="383.65" y1="125.74" x2="383.65" y2="120.31"/><line class="cls-14" x1="378.47" y1="127.84" x2="374.63" y2="124"/><line class="cls-14" x1="376.29" y1="132.99" x2="370.86" y2="132.99"/><line class="cls-14" x1="378.39" y1="138.17" x2="374.55" y2="142.01"/><line class="cls-14" x1="383.54" y1="140.35" x2="383.54" y2="145.78"/><line class="cls-14" x1="388.72" y1="138.25" x2="392.56" y2="142.09"/><line class="cls-14" x1="390.9" y1="133.1" x2="396.33" y2="133.1"/><line class="cls-14" x1="388.8" y1="127.92" x2="392.64" y2="124.08"/></g></g></svg>